<mxfile host="app.diagrams.net" modified="2024-04-25T03:10:08.117Z" agent="Mozilla/5.0 (Windows NT 10.0; Win64; x64) AppleWebKit/537.36 (KHTML, like Gecko) Chrome/124.0.0.0 Safari/537.36" etag="yjviO6b1Z_Rnd_2CbJ84" version="24.3.0" type="device">
  <diagram name="Page-1" id="eIDo38rV3SL3sS-mw_E1">
    <mxGraphModel dx="1257" dy="669" grid="1" gridSize="10" guides="1" tooltips="1" connect="1" arrows="1" fold="1" page="1" pageScale="1" pageWidth="1100" pageHeight="850" math="0" shadow="0">
      <root>
        <mxCell id="0" />
        <mxCell id="1" parent="0" />
        <mxCell id="AUo9YFX8Tmc6pmDLn0fj-62" style="edgeStyle=orthogonalEdgeStyle;rounded=0;orthogonalLoop=1;jettySize=auto;html=1;exitX=0;exitY=0.5;exitDx=0;exitDy=0;entryX=1;entryY=0.5;entryDx=0;entryDy=0;" parent="1" source="AUo9YFX8Tmc6pmDLn0fj-30" target="AUo9YFX8Tmc6pmDLn0fj-61" edge="1">
          <mxGeometry relative="1" as="geometry" />
        </mxCell>
        <mxCell id="AUo9YFX8Tmc6pmDLn0fj-73" style="edgeStyle=orthogonalEdgeStyle;rounded=0;orthogonalLoop=1;jettySize=auto;html=1;exitX=0.75;exitY=0;exitDx=0;exitDy=0;entryX=0.5;entryY=1;entryDx=0;entryDy=0;" parent="1" source="AUo9YFX8Tmc6pmDLn0fj-30" target="AUo9YFX8Tmc6pmDLn0fj-69" edge="1">
          <mxGeometry relative="1" as="geometry">
            <Array as="points">
              <mxPoint x="580" y="230" />
              <mxPoint x="649" y="230" />
            </Array>
          </mxGeometry>
        </mxCell>
        <mxCell id="P4W4asdII1Cv2BZ50rhy-3" style="edgeStyle=orthogonalEdgeStyle;rounded=0;orthogonalLoop=1;jettySize=auto;html=1;exitX=0.5;exitY=0;exitDx=0;exitDy=0;entryX=1;entryY=1;entryDx=0;entryDy=0;" edge="1" parent="1" source="AUo9YFX8Tmc6pmDLn0fj-30" target="AUo9YFX8Tmc6pmDLn0fj-51">
          <mxGeometry relative="1" as="geometry">
            <Array as="points">
              <mxPoint x="549" y="198" />
            </Array>
          </mxGeometry>
        </mxCell>
        <mxCell id="P4W4asdII1Cv2BZ50rhy-10" style="edgeStyle=orthogonalEdgeStyle;rounded=0;orthogonalLoop=1;jettySize=auto;html=1;exitX=0.25;exitY=1;exitDx=0;exitDy=0;entryX=1;entryY=0;entryDx=0;entryDy=0;" edge="1" parent="1" source="AUo9YFX8Tmc6pmDLn0fj-30" target="AUo9YFX8Tmc6pmDLn0fj-44">
          <mxGeometry relative="1" as="geometry" />
        </mxCell>
        <mxCell id="P4W4asdII1Cv2BZ50rhy-11" style="edgeStyle=orthogonalEdgeStyle;rounded=0;orthogonalLoop=1;jettySize=auto;html=1;exitX=0.75;exitY=1;exitDx=0;exitDy=0;entryX=0;entryY=0;entryDx=0;entryDy=0;" edge="1" parent="1" source="AUo9YFX8Tmc6pmDLn0fj-30" target="AUo9YFX8Tmc6pmDLn0fj-32">
          <mxGeometry relative="1" as="geometry" />
        </mxCell>
        <mxCell id="AUo9YFX8Tmc6pmDLn0fj-30" value="Admin" style="rounded=0;whiteSpace=wrap;html=1;" parent="1" vertex="1">
          <mxGeometry x="489" y="320" width="120" height="60" as="geometry" />
        </mxCell>
        <mxCell id="P4W4asdII1Cv2BZ50rhy-14" style="edgeStyle=orthogonalEdgeStyle;rounded=0;orthogonalLoop=1;jettySize=auto;html=1;exitX=1;exitY=0.5;exitDx=0;exitDy=0;entryX=0;entryY=1;entryDx=0;entryDy=0;" edge="1" parent="1" source="AUo9YFX8Tmc6pmDLn0fj-32" target="AUo9YFX8Tmc6pmDLn0fj-37">
          <mxGeometry relative="1" as="geometry" />
        </mxCell>
        <mxCell id="AUo9YFX8Tmc6pmDLn0fj-32" value="input data transaksi" style="ellipse;whiteSpace=wrap;html=1;aspect=fixed;" parent="1" vertex="1">
          <mxGeometry x="597" y="419" width="80" height="80" as="geometry" />
        </mxCell>
        <mxCell id="P4W4asdII1Cv2BZ50rhy-25" style="edgeStyle=orthogonalEdgeStyle;rounded=0;orthogonalLoop=1;jettySize=auto;html=1;exitX=0;exitY=1;exitDx=0;exitDy=0;entryX=1;entryY=1;entryDx=0;entryDy=0;" edge="1" parent="1" source="AUo9YFX8Tmc6pmDLn0fj-34" target="AUo9YFX8Tmc6pmDLn0fj-37">
          <mxGeometry relative="1" as="geometry" />
        </mxCell>
        <mxCell id="JZ4BVXdF0j20zcZhhWsW-5" style="edgeStyle=orthogonalEdgeStyle;rounded=0;orthogonalLoop=1;jettySize=auto;html=1;exitX=0.5;exitY=1;exitDx=0;exitDy=0;entryX=0.5;entryY=0;entryDx=0;entryDy=0;" edge="1" parent="1" source="AUo9YFX8Tmc6pmDLn0fj-34" target="JZ4BVXdF0j20zcZhhWsW-3">
          <mxGeometry relative="1" as="geometry" />
        </mxCell>
        <mxCell id="AUo9YFX8Tmc6pmDLn0fj-34" value="Orderan" style="shape=process;whiteSpace=wrap;html=1;backgroundOutline=1;" parent="1" vertex="1">
          <mxGeometry x="897" y="428" width="120" height="60" as="geometry" />
        </mxCell>
        <mxCell id="P4W4asdII1Cv2BZ50rhy-15" style="edgeStyle=orthogonalEdgeStyle;rounded=0;orthogonalLoop=1;jettySize=auto;html=1;exitX=0;exitY=0;exitDx=0;exitDy=0;entryX=1;entryY=0.5;entryDx=0;entryDy=0;" edge="1" parent="1" source="AUo9YFX8Tmc6pmDLn0fj-37" target="AUo9YFX8Tmc6pmDLn0fj-30">
          <mxGeometry relative="1" as="geometry" />
        </mxCell>
        <mxCell id="P4W4asdII1Cv2BZ50rhy-16" style="edgeStyle=orthogonalEdgeStyle;rounded=0;orthogonalLoop=1;jettySize=auto;html=1;exitX=1;exitY=0;exitDx=0;exitDy=0;entryX=0;entryY=0.5;entryDx=0;entryDy=0;" edge="1" parent="1" source="AUo9YFX8Tmc6pmDLn0fj-37" target="AUo9YFX8Tmc6pmDLn0fj-39">
          <mxGeometry relative="1" as="geometry" />
        </mxCell>
        <mxCell id="P4W4asdII1Cv2BZ50rhy-26" style="edgeStyle=orthogonalEdgeStyle;rounded=0;orthogonalLoop=1;jettySize=auto;html=1;exitX=1;exitY=0.5;exitDx=0;exitDy=0;entryX=0;entryY=0.25;entryDx=0;entryDy=0;" edge="1" parent="1" source="AUo9YFX8Tmc6pmDLn0fj-37" target="AUo9YFX8Tmc6pmDLn0fj-34">
          <mxGeometry relative="1" as="geometry" />
        </mxCell>
        <mxCell id="P4W4asdII1Cv2BZ50rhy-27" style="edgeStyle=orthogonalEdgeStyle;rounded=0;orthogonalLoop=1;jettySize=auto;html=1;exitX=0.5;exitY=1;exitDx=0;exitDy=0;entryX=1;entryY=0.25;entryDx=0;entryDy=0;" edge="1" parent="1" source="AUo9YFX8Tmc6pmDLn0fj-37" target="P4W4asdII1Cv2BZ50rhy-1">
          <mxGeometry relative="1" as="geometry" />
        </mxCell>
        <mxCell id="AUo9YFX8Tmc6pmDLn0fj-37" value="Kumpulkan Data" style="ellipse;whiteSpace=wrap;html=1;aspect=fixed;" parent="1" vertex="1">
          <mxGeometry x="700" y="339" width="80" height="80" as="geometry" />
        </mxCell>
        <mxCell id="P4W4asdII1Cv2BZ50rhy-19" style="edgeStyle=orthogonalEdgeStyle;rounded=0;orthogonalLoop=1;jettySize=auto;html=1;exitX=0;exitY=0;exitDx=0;exitDy=0;entryX=0.5;entryY=0;entryDx=0;entryDy=0;" edge="1" parent="1" source="AUo9YFX8Tmc6pmDLn0fj-39" target="AUo9YFX8Tmc6pmDLn0fj-37">
          <mxGeometry relative="1" as="geometry" />
        </mxCell>
        <mxCell id="JZ4BVXdF0j20zcZhhWsW-4" style="edgeStyle=orthogonalEdgeStyle;rounded=0;orthogonalLoop=1;jettySize=auto;html=1;exitX=1;exitY=0.5;exitDx=0;exitDy=0;entryX=1;entryY=0.5;entryDx=0;entryDy=0;" edge="1" parent="1" source="AUo9YFX8Tmc6pmDLn0fj-39" target="JZ4BVXdF0j20zcZhhWsW-3">
          <mxGeometry relative="1" as="geometry" />
        </mxCell>
        <mxCell id="AUo9YFX8Tmc6pmDLn0fj-39" value="Konsumen" style="shape=process;whiteSpace=wrap;html=1;backgroundOutline=1;" parent="1" vertex="1">
          <mxGeometry x="900" y="320" width="120" height="60" as="geometry" />
        </mxCell>
        <mxCell id="P4W4asdII1Cv2BZ50rhy-12" style="edgeStyle=orthogonalEdgeStyle;rounded=0;orthogonalLoop=1;jettySize=auto;html=1;exitX=0;exitY=0;exitDx=0;exitDy=0;entryX=1;entryY=0;entryDx=0;entryDy=0;" edge="1" parent="1" source="AUo9YFX8Tmc6pmDLn0fj-44" target="AUo9YFX8Tmc6pmDLn0fj-46">
          <mxGeometry relative="1" as="geometry" />
        </mxCell>
        <mxCell id="AUo9YFX8Tmc6pmDLn0fj-44" value="Input data pembayaran" style="ellipse;whiteSpace=wrap;html=1;aspect=fixed;" parent="1" vertex="1">
          <mxGeometry x="420" y="420" width="80" height="80" as="geometry" />
        </mxCell>
        <mxCell id="AUo9YFX8Tmc6pmDLn0fj-60" style="edgeStyle=orthogonalEdgeStyle;rounded=0;orthogonalLoop=1;jettySize=auto;html=1;exitX=0.5;exitY=1;exitDx=0;exitDy=0;entryX=1;entryY=0.5;entryDx=0;entryDy=0;" parent="1" source="AUo9YFX8Tmc6pmDLn0fj-46" target="AUo9YFX8Tmc6pmDLn0fj-48" edge="1">
          <mxGeometry relative="1" as="geometry" />
        </mxCell>
        <mxCell id="P4W4asdII1Cv2BZ50rhy-13" style="edgeStyle=orthogonalEdgeStyle;rounded=0;orthogonalLoop=1;jettySize=auto;html=1;exitX=0.5;exitY=0;exitDx=0;exitDy=0;entryX=0;entryY=0.75;entryDx=0;entryDy=0;" edge="1" parent="1" source="AUo9YFX8Tmc6pmDLn0fj-46" target="AUo9YFX8Tmc6pmDLn0fj-30">
          <mxGeometry relative="1" as="geometry" />
        </mxCell>
        <mxCell id="P4W4asdII1Cv2BZ50rhy-22" style="edgeStyle=orthogonalEdgeStyle;rounded=0;orthogonalLoop=1;jettySize=auto;html=1;exitX=1;exitY=1;exitDx=0;exitDy=0;entryX=0;entryY=0;entryDx=0;entryDy=0;" edge="1" parent="1" source="AUo9YFX8Tmc6pmDLn0fj-46" target="P4W4asdII1Cv2BZ50rhy-1">
          <mxGeometry relative="1" as="geometry" />
        </mxCell>
        <mxCell id="AUo9YFX8Tmc6pmDLn0fj-46" value="kumpulkan&lt;div&gt;data&lt;/div&gt;" style="ellipse;whiteSpace=wrap;html=1;aspect=fixed;" parent="1" vertex="1">
          <mxGeometry x="318" y="490" width="80" height="80" as="geometry" />
        </mxCell>
        <mxCell id="AUo9YFX8Tmc6pmDLn0fj-47" style="edgeStyle=orthogonalEdgeStyle;rounded=0;orthogonalLoop=1;jettySize=auto;html=1;exitX=0.25;exitY=0;exitDx=0;exitDy=0;entryX=0;entryY=0.5;entryDx=0;entryDy=0;" parent="1" source="AUo9YFX8Tmc6pmDLn0fj-48" target="AUo9YFX8Tmc6pmDLn0fj-46" edge="1">
          <mxGeometry relative="1" as="geometry" />
        </mxCell>
        <mxCell id="AUo9YFX8Tmc6pmDLn0fj-48" value="Pembayaran" style="shape=process;whiteSpace=wrap;html=1;backgroundOutline=1;" parent="1" vertex="1">
          <mxGeometry x="179" y="580" width="120" height="60" as="geometry" />
        </mxCell>
        <mxCell id="P4W4asdII1Cv2BZ50rhy-4" style="edgeStyle=orthogonalEdgeStyle;rounded=0;orthogonalLoop=1;jettySize=auto;html=1;exitX=0;exitY=0.5;exitDx=0;exitDy=0;entryX=1;entryY=0.5;entryDx=0;entryDy=0;" edge="1" parent="1" source="AUo9YFX8Tmc6pmDLn0fj-51" target="AUo9YFX8Tmc6pmDLn0fj-53">
          <mxGeometry relative="1" as="geometry" />
        </mxCell>
        <mxCell id="AUo9YFX8Tmc6pmDLn0fj-51" value="Input data layanan" style="ellipse;whiteSpace=wrap;html=1;aspect=fixed;" parent="1" vertex="1">
          <mxGeometry x="452" y="130" width="80" height="80" as="geometry" />
        </mxCell>
        <mxCell id="P4W4asdII1Cv2BZ50rhy-5" style="edgeStyle=orthogonalEdgeStyle;rounded=0;orthogonalLoop=1;jettySize=auto;html=1;exitX=0;exitY=0.5;exitDx=0;exitDy=0;entryX=1;entryY=0.5;entryDx=0;entryDy=0;" edge="1" parent="1" source="AUo9YFX8Tmc6pmDLn0fj-53" target="AUo9YFX8Tmc6pmDLn0fj-55">
          <mxGeometry relative="1" as="geometry" />
        </mxCell>
        <mxCell id="P4W4asdII1Cv2BZ50rhy-8" style="edgeStyle=orthogonalEdgeStyle;rounded=0;orthogonalLoop=1;jettySize=auto;html=1;exitX=1;exitY=1;exitDx=0;exitDy=0;entryX=0.25;entryY=0;entryDx=0;entryDy=0;" edge="1" parent="1" source="AUo9YFX8Tmc6pmDLn0fj-53" target="AUo9YFX8Tmc6pmDLn0fj-30">
          <mxGeometry relative="1" as="geometry">
            <Array as="points">
              <mxPoint x="398" y="230" />
              <mxPoint x="519" y="230" />
            </Array>
          </mxGeometry>
        </mxCell>
        <mxCell id="AUo9YFX8Tmc6pmDLn0fj-53" value="Kumpulkan data" style="ellipse;whiteSpace=wrap;html=1;aspect=fixed;" parent="1" vertex="1">
          <mxGeometry x="330" y="129" width="80" height="80" as="geometry" />
        </mxCell>
        <mxCell id="P4W4asdII1Cv2BZ50rhy-6" style="edgeStyle=orthogonalEdgeStyle;rounded=0;orthogonalLoop=1;jettySize=auto;html=1;exitX=1;exitY=1;exitDx=0;exitDy=0;entryX=0;entryY=1;entryDx=0;entryDy=0;" edge="1" parent="1" source="AUo9YFX8Tmc6pmDLn0fj-55" target="AUo9YFX8Tmc6pmDLn0fj-53">
          <mxGeometry relative="1" as="geometry" />
        </mxCell>
        <mxCell id="AUo9YFX8Tmc6pmDLn0fj-55" value="Layanan" style="shape=process;whiteSpace=wrap;html=1;backgroundOutline=1;" parent="1" vertex="1">
          <mxGeometry x="139" y="139" width="120" height="60" as="geometry" />
        </mxCell>
        <mxCell id="AUo9YFX8Tmc6pmDLn0fj-64" style="edgeStyle=orthogonalEdgeStyle;rounded=0;orthogonalLoop=1;jettySize=auto;html=1;exitX=0;exitY=0.5;exitDx=0;exitDy=0;entryX=1;entryY=0.5;entryDx=0;entryDy=0;" parent="1" source="AUo9YFX8Tmc6pmDLn0fj-61" target="AUo9YFX8Tmc6pmDLn0fj-63" edge="1">
          <mxGeometry relative="1" as="geometry" />
        </mxCell>
        <mxCell id="AUo9YFX8Tmc6pmDLn0fj-61" value="input metode pembayaran" style="ellipse;whiteSpace=wrap;html=1;aspect=fixed;" parent="1" vertex="1">
          <mxGeometry x="317" y="270" width="80" height="80" as="geometry" />
        </mxCell>
        <mxCell id="AUo9YFX8Tmc6pmDLn0fj-66" style="edgeStyle=orthogonalEdgeStyle;rounded=0;orthogonalLoop=1;jettySize=auto;html=1;exitX=0.5;exitY=1;exitDx=0;exitDy=0;entryX=0.5;entryY=0;entryDx=0;entryDy=0;" parent="1" source="AUo9YFX8Tmc6pmDLn0fj-63" target="AUo9YFX8Tmc6pmDLn0fj-65" edge="1">
          <mxGeometry relative="1" as="geometry" />
        </mxCell>
        <mxCell id="AUo9YFX8Tmc6pmDLn0fj-68" style="edgeStyle=orthogonalEdgeStyle;rounded=0;orthogonalLoop=1;jettySize=auto;html=1;exitX=1;exitY=0;exitDx=0;exitDy=0;entryX=0;entryY=0;entryDx=0;entryDy=0;" parent="1" source="AUo9YFX8Tmc6pmDLn0fj-63" target="AUo9YFX8Tmc6pmDLn0fj-30" edge="1">
          <mxGeometry relative="1" as="geometry">
            <Array as="points">
              <mxPoint x="237" y="260" />
              <mxPoint x="489" y="260" />
            </Array>
          </mxGeometry>
        </mxCell>
        <mxCell id="AUo9YFX8Tmc6pmDLn0fj-63" value="kumpulkan data" style="ellipse;whiteSpace=wrap;html=1;aspect=fixed;" parent="1" vertex="1">
          <mxGeometry x="169" y="270" width="80" height="80" as="geometry" />
        </mxCell>
        <mxCell id="AUo9YFX8Tmc6pmDLn0fj-67" style="edgeStyle=orthogonalEdgeStyle;rounded=0;orthogonalLoop=1;jettySize=auto;html=1;exitX=0.25;exitY=0;exitDx=0;exitDy=0;entryX=0;entryY=1;entryDx=0;entryDy=0;" parent="1" source="AUo9YFX8Tmc6pmDLn0fj-65" target="AUo9YFX8Tmc6pmDLn0fj-63" edge="1">
          <mxGeometry relative="1" as="geometry" />
        </mxCell>
        <mxCell id="AUo9YFX8Tmc6pmDLn0fj-65" value="metode pembayaran" style="shape=process;whiteSpace=wrap;html=1;backgroundOutline=1;" parent="1" vertex="1">
          <mxGeometry x="150" y="400" width="120" height="60" as="geometry" />
        </mxCell>
        <mxCell id="AUo9YFX8Tmc6pmDLn0fj-74" style="edgeStyle=orthogonalEdgeStyle;rounded=0;orthogonalLoop=1;jettySize=auto;html=1;exitX=1;exitY=0.5;exitDx=0;exitDy=0;entryX=0;entryY=0.5;entryDx=0;entryDy=0;" parent="1" source="AUo9YFX8Tmc6pmDLn0fj-69" target="AUo9YFX8Tmc6pmDLn0fj-70" edge="1">
          <mxGeometry relative="1" as="geometry" />
        </mxCell>
        <mxCell id="AUo9YFX8Tmc6pmDLn0fj-69" value="input data pengguna" style="ellipse;whiteSpace=wrap;html=1;aspect=fixed;" parent="1" vertex="1">
          <mxGeometry x="609" y="130" width="80" height="80" as="geometry" />
        </mxCell>
        <mxCell id="AUo9YFX8Tmc6pmDLn0fj-75" style="edgeStyle=orthogonalEdgeStyle;rounded=0;orthogonalLoop=1;jettySize=auto;html=1;exitX=1;exitY=0.5;exitDx=0;exitDy=0;entryX=0;entryY=0.5;entryDx=0;entryDy=0;" parent="1" source="AUo9YFX8Tmc6pmDLn0fj-70" target="AUo9YFX8Tmc6pmDLn0fj-71" edge="1">
          <mxGeometry relative="1" as="geometry" />
        </mxCell>
        <mxCell id="AUo9YFX8Tmc6pmDLn0fj-78" style="edgeStyle=orthogonalEdgeStyle;rounded=0;orthogonalLoop=1;jettySize=auto;html=1;exitX=0.5;exitY=1;exitDx=0;exitDy=0;entryX=1;entryY=0;entryDx=0;entryDy=0;" parent="1" source="AUo9YFX8Tmc6pmDLn0fj-70" target="AUo9YFX8Tmc6pmDLn0fj-30" edge="1">
          <mxGeometry relative="1" as="geometry" />
        </mxCell>
        <mxCell id="AUo9YFX8Tmc6pmDLn0fj-70" value="kumpulkan data" style="ellipse;whiteSpace=wrap;html=1;aspect=fixed;" parent="1" vertex="1">
          <mxGeometry x="729" y="129" width="80" height="80" as="geometry" />
        </mxCell>
        <mxCell id="P4W4asdII1Cv2BZ50rhy-2" style="edgeStyle=orthogonalEdgeStyle;rounded=0;orthogonalLoop=1;jettySize=auto;html=1;exitX=0;exitY=1;exitDx=0;exitDy=0;entryX=1;entryY=1;entryDx=0;entryDy=0;" edge="1" parent="1" source="AUo9YFX8Tmc6pmDLn0fj-71" target="AUo9YFX8Tmc6pmDLn0fj-70">
          <mxGeometry relative="1" as="geometry" />
        </mxCell>
        <mxCell id="AUo9YFX8Tmc6pmDLn0fj-71" value="user" style="shape=process;whiteSpace=wrap;html=1;backgroundOutline=1;" parent="1" vertex="1">
          <mxGeometry x="900" y="139" width="120" height="60" as="geometry" />
        </mxCell>
        <mxCell id="P4W4asdII1Cv2BZ50rhy-20" style="edgeStyle=orthogonalEdgeStyle;rounded=0;orthogonalLoop=1;jettySize=auto;html=1;exitX=0.25;exitY=0;exitDx=0;exitDy=0;entryX=1;entryY=1;entryDx=0;entryDy=0;" edge="1" parent="1" source="P4W4asdII1Cv2BZ50rhy-1" target="AUo9YFX8Tmc6pmDLn0fj-44">
          <mxGeometry relative="1" as="geometry" />
        </mxCell>
        <mxCell id="P4W4asdII1Cv2BZ50rhy-21" style="edgeStyle=orthogonalEdgeStyle;rounded=0;orthogonalLoop=1;jettySize=auto;html=1;exitX=0.75;exitY=0;exitDx=0;exitDy=0;entryX=0.5;entryY=1;entryDx=0;entryDy=0;" edge="1" parent="1" source="P4W4asdII1Cv2BZ50rhy-1" target="AUo9YFX8Tmc6pmDLn0fj-32">
          <mxGeometry relative="1" as="geometry" />
        </mxCell>
        <mxCell id="P4W4asdII1Cv2BZ50rhy-1" value="Petugas" style="rounded=0;whiteSpace=wrap;html=1;" vertex="1" parent="1">
          <mxGeometry x="510" y="580" width="120" height="60" as="geometry" />
        </mxCell>
        <mxCell id="JZ4BVXdF0j20zcZhhWsW-1" value="Pimpinan" style="rounded=0;whiteSpace=wrap;html=1;" vertex="1" parent="1">
          <mxGeometry x="897" y="730" width="120" height="60" as="geometry" />
        </mxCell>
        <mxCell id="JZ4BVXdF0j20zcZhhWsW-2" style="edgeStyle=orthogonalEdgeStyle;rounded=0;orthogonalLoop=1;jettySize=auto;html=1;exitX=0.5;exitY=1;exitDx=0;exitDy=0;entryX=0.5;entryY=0;entryDx=0;entryDy=0;" edge="1" parent="1" source="JZ4BVXdF0j20zcZhhWsW-3" target="JZ4BVXdF0j20zcZhhWsW-1">
          <mxGeometry relative="1" as="geometry" />
        </mxCell>
        <mxCell id="JZ4BVXdF0j20zcZhhWsW-3" value="Kumpulkan Data" style="ellipse;whiteSpace=wrap;html=1;aspect=fixed;" vertex="1" parent="1">
          <mxGeometry x="917" y="560" width="80" height="80" as="geometry" />
        </mxCell>
      </root>
    </mxGraphModel>
  </diagram>
</mxfile>
